<?xml version="1.0" encoding="UTF-8"?>
<svg version="1.1" xmlns="http://www.w3.org/2000/svg" width="2841" height="664">
<path d="M0 0 C3.32284545 0.01611373 6.64447535 0.00000592 9.96728516 -0.01904297 C30.32257214 -0.03998404 50.53992581 1.7921198 70.44775391 6.14111328 C71.64811279 6.39787842 72.84847168 6.65464355 74.08520508 6.91918945 C111.00962567 15.03216761 146.86893625 29.05097682 178.82275391 49.39111328 C180.31742187 50.33083984 180.31742187 50.33083984 181.84228516 51.28955078 C196.63211452 60.8796727 210.73757465 71.58572202 223.82275391 83.39111328 C224.71873291 84.19452148 224.71873291 84.19452148 225.6328125 85.01416016 C239.44977571 97.46213647 252.28581623 110.73508794 263.47363281 125.609375 C264.8666845 127.44913091 266.28575748 129.26641572 267.70947266 131.08251953 C304.84586969 178.8781553 326.08007165 237.6072743 332.82275391 297.39111328 C332.97744141 298.73351074 332.97744141 298.73351074 333.13525391 300.10302734 C334.15278566 310.33285553 334.06651317 320.62108449 334.07275391 330.89111328 C334.07376602 332.38960312 334.07376602 332.38960312 334.07479858 333.91836548 C334.05732124 350.2541271 333.39523131 366.22842599 330.82275391 382.39111328 C330.56534424 384.01339844 330.56534424 384.01339844 330.30273438 385.66845703 C320.74875998 443.65826406 296.27672304 498.11094164 258.82275391 543.39111328 C258.06994141 544.32955078 257.31712891 545.26798828 256.54150391 546.23486328 C249.61594195 554.70619165 241.97264402 562.4569087 234.26025391 570.20361328 C233.72981476 570.73922882 233.19937561 571.27484436 232.65286255 571.82669067 C225.71509006 578.81773489 218.58958998 585.31053278 210.82275391 591.39111328 C210.09306396 591.96949951 209.36337402 592.54788574 208.61157227 593.14379883 C193.76840321 604.83665298 178.28619423 615.12613038 161.82275391 624.39111328 C161.0910498 624.80361328 160.3593457 625.21611328 159.60546875 625.64111328 C117.14229889 649.33976487 66.9324058 664.42550824 18.12744141 664.59423828 C16.82235626 664.59993835 15.51727112 664.60563843 14.17263794 664.61151123 C11.41424174 664.62195626 8.65587406 664.62783862 5.89746094 664.63134766 C3.12258492 664.63569598 0.34802621 664.64945706 -2.42675781 664.67236328 C-19.87113592 664.81336627 -36.92059855 664.21234162 -54.17724609 661.39111328 C-55.39927734 661.19227539 -56.62130859 660.9934375 -57.88037109 660.78857422 C-60.6414021 660.29527717 -63.37592581 659.74452917 -66.11474609 659.14111328 C-67.08669922 658.93131836 -68.05865234 658.72152344 -69.06005859 658.50537109 C-134.91097165 643.89759813 -191.23022109 611.11807905 -238.86474609 563.89111328 C-239.74372559 563.02518555 -240.62270508 562.15925781 -241.52832031 561.26708984 C-247.51321996 555.29006359 -252.93583453 549.02597174 -258.17724609 542.39111328 C-258.7314624 541.70146484 -259.28567871 541.01181641 -259.85668945 540.30126953 C-302.83772534 486.58362765 -331.09162878 417.00344207 -331.38037109 347.63720703 C-331.3889212 345.98846336 -331.3889212 345.98846336 -331.39764404 344.30641174 C-331.40703779 341.98610375 -331.41360546 339.66578276 -331.41748047 337.34545898 C-331.42707642 333.88971856 -331.45810911 330.43460252 -331.48974609 326.97900391 C-331.58880852 306.3449266 -329.83571374 285.95009885 -325.42724609 265.76611328 C-325.17120605 264.56720459 -324.91516602 263.3682959 -324.65136719 262.13305664 C-311.092992 200.35214209 -280.8891625 146.46321701 -237.92724609 100.45361328 C-236.95307739 99.40657227 -236.95307739 99.40657227 -235.95922852 98.33837891 C-232.14179744 94.2935986 -228.1816522 90.54049892 -223.95898438 86.92114258 C-221.83067562 85.09350337 -219.78990496 83.18062836 -217.73974609 81.26611328 C-198.47748858 63.98544958 -176.21294253 49.12627939 -153.17724609 37.39111328 C-152.2486377 36.91722168 -151.3200293 36.44333008 -150.36328125 35.95507812 C-123.05796054 22.15847245 -94.82255001 12.09658845 -64.80224609 6.14111328 C-63.63491943 5.90690674 -62.46759277 5.6727002 -61.26489258 5.43139648 C-40.95963104 1.60262396 -20.65047045 -0.11838429 0 0 Z " fill="#127BC5" transform="translate(331.17724609375,-0.39111328125)"/>
<path d="M0 0 C2.50153975 1.42626765 3.45707169 3.23559922 4.94140625 5.6875 C10.00170331 13.26169195 15.93336541 16.91141528 24.75390625 19 C43.36982439 21.13692659 62.49160124 16.18590677 80.75390625 13 C71.51073652 61.4388018 62.12505253 109.84829195 52.61718965 158.23580921 C51.45521898 164.14989826 50.29460881 170.06425314 49.13476562 175.97875977 C44.68777919 198.65513337 40.23083641 221.32951753 35.75390625 244 C35.53414973 245.11301877 35.53414973 245.11301877 35.30995369 246.24852276 C33.50268931 255.40103093 31.69031006 264.55250232 29.86925125 273.70227623 C29.37125577 276.20645449 28.87435388 278.71085056 28.37870407 281.21549416 C20.60136633 320.49246892 12.20537484 362.09117518 -6.24609375 398 C-6.7570459 399.01731201 -6.7570459 399.01731201 -7.27832031 400.05517578 C-17.58368026 420.34120626 -33.01283401 437.04241868 -55.109375 444.35546875 C-78.29081044 451.13609981 -103.54838255 450.4252063 -125.05078125 438.98828125 C-130.04198243 435.88250937 -134.16176177 432.20557375 -138.24609375 428 C-138.80683594 427.45988281 -139.36757812 426.91976563 -139.9453125 426.36328125 C-149.92636199 415.96308007 -154.37268535 400.75733988 -154.43359375 386.6875 C-154.38646732 384.79122223 -154.32983414 382.89501394 -154.24609375 381 C-164.76169759 387.30002893 -173.58217151 394.33607776 -182.24609375 403 C-186.12205903 389.63321206 -189.60838019 376.27001502 -192.05859375 362.5625 C-192.25283936 361.4890332 -192.44708496 360.41556641 -192.6472168 359.30957031 C-195.61695626 341.98413375 -196.59573447 324.91674336 -196.56176758 307.35083008 C-196.55862023 303.96597644 -196.58212409 300.58201138 -196.60742188 297.19726562 C-196.66775258 276.71118552 -194.8725593 256.41246531 -190.49609375 236.375 C-190.24005371 235.17609131 -189.98401367 233.97718262 -189.72021484 232.74194336 C-176.16183965 170.96102881 -145.95801015 117.07210373 -102.99609375 71.0625 C-102.02192505 70.01545898 -102.02192505 70.01545898 -101.02807617 68.94726562 C-97.21064509 64.90248532 -93.25049986 61.14938563 -89.02783203 57.5300293 C-86.89952328 55.70239009 -84.85875261 53.78951508 -82.80859375 51.875 C-63.48077412 34.53551885 -41.22215198 19.99602119 -18.24609375 8 C-17.50262695 7.60248535 -16.75916016 7.2049707 -15.99316406 6.79541016 C-13.79317867 5.61971904 -11.58447917 4.4627314 -9.37109375 3.3125 C-8.71044922 2.96058594 -8.04980469 2.60867187 -7.36914062 2.24609375 C-4.87029751 0.97966436 -2.83262904 0 0 0 Z " fill="#2250A2" transform="translate(196.24609375,29)"/>
<path d="M0 0 C3.03804875 5.34468566 3.48608695 11.45541303 4.5 17.4375 C4.81904297 19.22124023 4.81904297 19.22124023 5.14453125 21.04101562 C8.28502614 39.31561318 9.38499348 57.53654247 9.3125 76.0625 C9.30976578 77.5272728 9.30976578 77.5272728 9.30697632 79.02163696 C9.25647055 95.17871111 8.54403387 111.01602131 6 127 C5.82839355 128.08152344 5.65678711 129.16304687 5.47998047 130.27734375 C-4.07399392 188.26715078 -28.54603087 242.71982836 -66 288 C-66.7528125 288.9384375 -67.505625 289.876875 -68.28125 290.84375 C-75.20681196 299.31507837 -82.85010989 307.06579542 -90.5625 314.8125 C-91.09293915 315.34811554 -91.6233783 315.88373108 -92.16989136 316.43557739 C-99.10766384 323.42662161 -106.23316393 329.91941949 -114 336 C-114.72968994 336.57838623 -115.45937988 337.15677246 -116.21118164 337.75268555 C-131.05435069 349.44553969 -146.53655967 359.73501709 -163 369 C-163.7317041 369.4125 -164.4634082 369.825 -165.21728516 370.25 C-200.08146602 389.70766362 -248.2569055 409.80463451 -289 408 C-288.38470829 401.82772516 -287.48007583 395.82114378 -286.25463867 389.74316406 C-286.07748573 388.84864816 -285.90033279 387.95413225 -285.71781158 387.0325098 C-285.12146246 384.02615403 -284.51968797 381.0209102 -283.91796875 378.015625 C-283.47930948 375.81005812 -283.04099144 373.60442335 -282.60298157 371.39872742 C-281.3912305 365.30165623 -280.17477842 359.20553092 -278.95761108 353.10953903 C-277.79188654 347.26731772 -276.62970844 341.42439147 -275.4675529 335.5814594 C-273.15403196 323.95024812 -270.83772827 312.31959286 -268.51992917 300.68923342 C-264.01248866 278.07114376 -259.51447799 255.45118123 -255.01720262 232.83106852 C-253.15779997 223.47883221 -251.2982533 214.12662453 -249.4387207 204.77441406 C-249.23459812 203.74780269 -249.03047554 202.72119132 -248.82016742 201.66347051 C-244.22550453 178.55526807 -239.62864642 155.44750248 -235.03125 132.33984375 C-234.84969179 131.42728184 -234.66813359 130.51471992 -234.48107362 129.57450461 C-232.32078935 118.71632176 -230.16044037 107.85815179 -228 97 C-236.38067505 97.10150663 -244.76124835 97.20886164 -253.14175791 97.32314795 C-257.03557264 97.37607615 -260.92939138 97.42718675 -264.82328796 97.47373962 C-300.00925695 97.89721978 -335.13370202 99.39137822 -369.48681641 107.78100586 C-373.06935499 108.64845391 -376.30942486 109.19987641 -380 109 C-376.63532668 93.4162499 -370.8667837 71.68499304 -356.625 62.4375 C-337.09558765 50.93684606 -310.01150913 52.85290386 -288.08959961 52.84228516 C-285.90488586 52.8376075 -283.72017307 52.8324624 -281.53546143 52.82688904 C-276.85449759 52.81567313 -272.17353987 52.80720785 -267.49256706 52.80076981 C-260.07156438 52.79001135 -252.65060602 52.76974603 -245.22962952 52.74765015 C-224.13495668 52.68598863 -203.04029288 52.63178589 -181.94555664 52.59863281 C-170.27662373 52.58021415 -158.6077661 52.55119135 -146.93888861 52.5106281 C-140.77974019 52.48968591 -134.62068605 52.47411905 -128.46150017 52.47182083 C-122.66074083 52.46965347 -116.86017802 52.45357423 -111.05947876 52.42743111 C-108.94778596 52.42031651 -106.83606914 52.4180983 -104.72436714 52.42153358 C-71.52696582 52.46685729 -40.35337055 47.08628675 -15.3125 23.8125 C-8.90044398 17.17812816 -3.12423038 8.70204484 0 0 Z " fill="#0899DD" transform="translate(656,255)"/>
<path d="M0 0 C3.38485364 0.00314735 6.7688187 -0.02035651 10.15356445 -0.0456543 C30.96284316 -0.10731757 51.45543238 1.805083 71.78833008 6.31567383 C73.54886719 6.68692383 73.54886719 6.68692383 75.3449707 7.06567383 C82.41727917 8.58032327 89.3962653 10.3304153 96.35083008 12.31567383 C94.86583008 12.81067383 94.86583008 12.81067383 93.35083008 13.31567383 C93.59317383 13.8287207 93.83551758 14.34176758 94.08520508 14.87036133 C96.61985367 20.6610585 98.23091887 26.47849077 99.60083008 32.62817383 C99.86331543 33.79292236 99.86331543 33.79292236 100.13110352 34.98120117 C100.95570408 38.82131789 101.571752 42.36274941 101.35083008 46.31567383 C100.83810547 46.06398437 100.32538086 45.81229492 99.79711914 45.55297852 C81.31528236 36.52311558 65.40136758 30.92034956 44.60083008 31.00317383 C43.59667557 31.00341553 43.59667557 31.00341553 42.57223511 31.00366211 C30.0027365 31.0245817 17.74832986 32.25147168 5.35083008 34.31567383 C2.89394438 43.62612404 0.95461118 53.01098578 -0.87280273 62.46044922 C-1.18360058 64.05484853 -1.49468496 65.649192 -1.80603027 67.2434845 C-2.47404544 70.66734374 -3.14007587 74.09158079 -3.80454254 77.51613045 C-4.87253541 83.02014624 -5.94524237 88.52323739 -7.01849365 94.02622986 C-8.92917937 103.82619428 -10.83599973 113.62690778 -12.74194336 123.42779541 C-18.66810535 153.90156155 -24.60677168 184.37286268 -30.57626343 214.83817291 C-31.28870506 218.47447549 -32.0003724 222.11092825 -32.71133423 225.74752045 C-34.57414257 235.27473911 -36.44273998 244.80076075 -38.32781196 254.32360238 C-39.10670043 258.25854868 -39.88309526 262.19392939 -40.6513443 266.13096809 C-45.835443 292.67643811 -51.71154422 319.07785326 -60.52416992 344.69067383 C-60.77618164 345.43329468 -61.02819336 346.17591553 -61.2878418 346.94104004 C-74.55588862 386.02759755 -91.37129256 423.46325754 -119.61791992 454.09692383 C-121.43875118 456.08583181 -123.17004398 458.12250359 -124.89916992 460.19067383 C-150.96405455 489.88559946 -189.44413955 512.0167714 -229.11791992 515.19067383 C-246.79711323 516.06372041 -268.15902031 515.16913011 -283.64916992 505.31567383 C-285.34668685 502.90356643 -286.68907682 500.722952 -288.02416992 498.12817383 C-288.40573242 497.41693359 -288.78729492 496.70569336 -289.18041992 495.97290039 C-290.35661487 493.76364017 -291.50553827 491.54193684 -292.64916992 489.31567383 C-292.99238281 488.65809082 -293.3355957 488.00050781 -293.68920898 487.32299805 C-296.09969026 482.69642915 -298.40346481 478.02427431 -300.64916992 473.31567383 C-301.02074219 472.53675781 -301.39231445 471.7578418 -301.77514648 470.95532227 C-306.04631643 461.92167231 -310.01242626 452.85113237 -313.21166992 443.37817383 C-313.46319824 442.63905762 -313.71472656 441.89994141 -313.97387695 441.13842773 C-316.27262033 434.03066695 -316.27262033 434.03066695 -315.64916992 430.31567383 C-311.48924572 424.38393006 -305.15938415 420.02553428 -299.33666992 415.81567383 C-298.73838379 415.38230713 -298.14009766 414.94894043 -297.52368164 414.50244141 C-294.58618191 412.4435504 -292.14942387 411.04708432 -288.64916992 410.31567383 C-288.56280273 411.52481445 -288.47643555 412.73395508 -288.38745117 413.97973633 C-286.89462819 432.29169829 -282.0414554 448.15127179 -268.28588867 461.18286133 C-249.58398078 476.31062682 -226.23339675 478.38768346 -202.98608398 476.04760742 C-184.12481687 473.25202758 -165.16166937 462.4661231 -153.64916992 447.31567383 C-129.14108988 413.59470239 -119.38641875 368.96810963 -110.80151367 328.87817383 C-110.61567467 328.01198803 -110.42983566 327.14580223 -110.23836517 326.25336838 C-104.06710172 297.39108309 -98.51366167 268.39900357 -92.86141258 239.43171042 C-91.21637928 231.00171577 -89.56694383 222.57258395 -87.91753316 214.1434449 C-76.77780756 157.21067162 -65.69190167 100.26733594 -54.64916992 43.31567383 C-55.68178452 43.49415863 -56.71439911 43.67264343 -57.77830505 43.85653687 C-61.65860009 44.52553475 -65.5402573 45.18632755 -69.42234802 45.84481812 C-71.09319371 46.129371 -72.76367668 46.41606313 -74.4337616 46.70504761 C-109.68104566 52.79824565 -109.68104566 52.79824565 -122.91088867 43.77270508 C-127.52493636 40.04564622 -131.08319642 35.68201265 -133.64916992 30.31567383 C-133.64916992 29.65567383 -133.64916992 28.99567383 -133.64916992 28.31567383 C-107.82142723 16.61609784 -81.23620804 8.80919336 -53.27416992 4.06567383 C-52.38552246 3.91461182 -51.496875 3.7635498 -50.58129883 3.60791016 C-47.60856216 3.13230448 -44.63330876 2.71389617 -41.64916992 2.31567383 C-40.68837021 2.18486923 -40.68837021 2.18486923 -39.7081604 2.05142212 C-26.47571848 0.30023094 -13.33720211 -0.02578991 0 0 Z " fill="#FFFFFF" transform="translate(330.649169921875,-0.315673828125)"/>
<path d="M0 0 C1.9532981 3.38864881 2.60297319 6.57689199 3.25390625 10.41796875 C3.46853516 11.67287109 3.68316406 12.92777344 3.90429688 14.22070312 C4.0665979 15.19922241 4.0665979 15.19922241 4.23217773 16.19750977 C4.55871992 18.16472734 4.89551246 20.13023452 5.23242188 22.09570312 C8.02277013 38.59332106 8.02277013 38.59332106 8.3125 46.8125 C8.34988281 47.52019531 8.38726563 48.22789062 8.42578125 48.95703125 C7.81693207 51.87839017 6.16787453 53.00726794 4 55 C2.93859452 56.38088325 1.89726269 57.77739393 0.875 59.1875 C-16.20212117 81.2575083 -43.55329172 90.45141852 -70.25463867 94.04101562 C-102.70272243 97.96057223 -135.38101082 97.23057462 -168 97 C-168.11710547 98.23560637 -168.23421095 99.47121275 -168.35486507 100.74426174 C-169.00880675 106.59620201 -170.15630258 112.32351 -171.32215881 118.09181213 C-171.55985928 119.28373214 -171.79755974 120.47565215 -172.04246324 121.70369095 C-172.69871646 124.99038278 -173.35839275 128.2763529 -174.01955903 131.56205761 C-174.73332013 135.11352038 -175.44260756 138.66587683 -176.15245056 142.21812439 C-177.38148399 148.36538456 -178.61332338 154.51207698 -179.84709358 160.65838814 C-181.63089394 169.54482276 -183.41042399 178.43210829 -185.18892723 187.31960439 C-188.07484492 201.74044765 -190.96419454 216.16060103 -193.85571289 230.58032227 C-196.66383494 244.58419247 -199.47033411 258.5883863 -202.2746582 272.59301758 C-202.44764122 273.45688178 -202.62062424 274.32074599 -202.79884917 275.2107879 C-203.66668117 279.54472755 -204.53448133 283.87867357 -205.40226567 288.21262276 C-212.59657628 324.1427378 -219.79646102 360.07173405 -227 396 C-229.6667485 396.79994055 -232.33458848 397.59587774 -235.00317383 398.38964844 C-235.74738838 398.61333099 -236.49160294 398.83701355 -237.25836945 399.06747437 C-244.65477693 401.26129105 -252.10476906 402.82175903 -259.6875 404.25 C-261.61432617 404.63285156 -261.61432617 404.63285156 -263.58007812 405.0234375 C-272.07468695 406.652893 -280.36466846 407.58239039 -289 408 C-288.38470829 401.82772516 -287.48007583 395.82114378 -286.25463867 389.74316406 C-286.07748573 388.84864816 -285.90033279 387.95413225 -285.71781158 387.0325098 C-285.12146246 384.02615403 -284.51968797 381.0209102 -283.91796875 378.015625 C-283.47930948 375.81005812 -283.04099144 373.60442335 -282.60298157 371.39872742 C-281.3912305 365.30165623 -280.17477842 359.20553092 -278.95761108 353.10953903 C-277.79188654 347.26731772 -276.62970844 341.42439147 -275.4675529 335.5814594 C-273.15403196 323.95024812 -270.83772827 312.31959286 -268.51992917 300.68923342 C-264.01248866 278.07114376 -259.51447799 255.45118123 -255.01720262 232.83106852 C-253.15779997 223.47883221 -251.2982533 214.12662453 -249.4387207 204.77441406 C-249.23459812 203.74780269 -249.03047554 202.72119132 -248.82016742 201.66347051 C-244.22550453 178.55526807 -239.62864642 155.44750248 -235.03125 132.33984375 C-234.84969179 131.42728184 -234.66813359 130.51471992 -234.48107362 129.57450461 C-232.32078935 118.71632176 -230.16044037 107.85815179 -228 97 C-236.38067505 97.10150663 -244.76124835 97.20886164 -253.14175791 97.32314795 C-257.03557264 97.37607615 -260.92939138 97.42718675 -264.82328796 97.47373962 C-300.00925695 97.89721978 -335.13370202 99.39137822 -369.48681641 107.78100586 C-373.06935499 108.64845391 -376.30942486 109.19987641 -380 109 C-376.63532668 93.4162499 -370.8667837 71.68499304 -356.625 62.4375 C-337.09558765 50.93684606 -310.01150913 52.85290386 -288.08959961 52.84228516 C-285.90488586 52.8376075 -283.72017307 52.8324624 -281.53546143 52.82688904 C-276.85449759 52.81567313 -272.17353987 52.80720785 -267.49256706 52.80076981 C-260.07156438 52.79001135 -252.65060602 52.76974603 -245.22962952 52.74765015 C-224.13495668 52.68598863 -203.04029288 52.63178589 -181.94555664 52.59863281 C-170.27662373 52.58021415 -158.6077661 52.55119135 -146.93888861 52.5106281 C-140.77974019 52.48968591 -134.62068605 52.47411905 -128.46150017 52.47182083 C-122.66074083 52.46965347 -116.86017802 52.45357423 -111.05947876 52.42743111 C-108.94778596 52.42031651 -106.83606914 52.4180983 -104.72436714 52.42153358 C-71.52696582 52.46685729 -40.35337055 47.08628675 -15.3125 23.8125 C-8.90044398 17.17812816 -3.12423038 8.70204484 0 0 Z " fill="#FCFCFC" transform="translate(656,255)"/>
<path d="M0 0 C98.67 0 197.34 0 299 0 C299 47.85 299 95.7 299 145 C296.36 145 293.72 145 291 145 C290.79431396 143.82832275 290.58862793 142.65664551 290.37670898 141.44946289 C284.73535863 108.86073558 284.73535863 108.86073558 276 77 C275.57702637 75.71198486 275.57702637 75.71198486 275.14550781 74.39794922 C269.88931969 58.69830865 263.37818456 44.01633651 253 31 C252.37738281 30.16855469 251.75476562 29.33710938 251.11328125 28.48046875 C239.48747956 14.83465716 220.41136782 8.40015159 203 7 C199.8731751 6.87448637 196.75398465 6.8595355 193.625 6.875 C192.81933594 6.87113281 192.01367188 6.86726562 191.18359375 6.86328125 C186.9578211 6.75744988 186.9578211 6.75744988 183 8 C182.06859928 11.38696888 181.87419478 14.60471117 181.87136555 18.10351944 C181.86652888 19.62017885 181.86652888 19.62017885 181.8615945 21.16747785 C181.8631431 22.27125862 181.8646917 23.37503939 181.86628723 24.51226807 C181.8628889 26.27937106 181.8628889 26.27937106 181.85942191 28.08217311 C181.85418666 31.34856623 181.85343704 34.61492473 181.85461628 37.88132071 C181.85482039 41.40564096 181.84930052 44.92995299 181.84455872 48.45426941 C181.83625347 55.35814182 181.83350392 62.26200569 181.83294634 69.16588268 C181.83247106 74.77876952 181.83041574 80.39165354 181.82724571 86.00453949 C181.81843904 101.92195492 181.81382629 117.83936361 181.81457619 133.75678149 C181.81461614 134.61483168 181.8146561 135.47288188 181.81469727 136.35693359 C181.81475859 137.64558265 181.81475859 137.64558265 181.81482115 138.96026501 C181.81522749 152.8795434 181.80566082 166.79879473 181.7915589 180.71806529 C181.77718976 195.01405585 181.77028903 209.31003322 181.77115268 223.60603118 C181.77148449 231.63057711 181.76874443 239.65509467 181.75797462 247.67963409 C181.74886249 254.51280974 181.74670019 261.34594416 181.75348405 268.17912325 C181.75674581 271.66376035 181.75681841 275.14831838 181.7481308 278.63294792 C181.74041858 282.41530168 181.74505088 286.1974481 181.75276184 289.97979736 C181.7450465 291.62208419 181.7450465 291.62208419 181.73717529 293.29754853 C181.7001323 302.34156913 181.7001323 302.34156913 184 311 C189.06578718 315.25771944 195.70130046 315.91658883 202.0625 316.6875 C202.90232422 316.80416016 203.74214844 316.92082031 204.60742188 317.04101562 C217.98093914 318.8088368 231.46862724 319.18498326 244.9375 319.5625 C246.41081478 319.60586623 247.88412214 319.64948496 249.35742188 319.69335938 C252.90486777 319.79846681 256.45239986 319.90021673 260 320 C260 321.98 260 323.96 260 326 C187.07 326 114.14 326 39 326 C39 324.02 39 322.04 39 320 C39.84369141 319.98018066 40.68738281 319.96036133 41.55664062 319.93994141 C79.74373929 321.33111724 79.74373929 321.33111724 115 311 C117.75960027 305.34453847 117.27836326 299.28878905 117.25396729 293.14401245 C117.25708727 291.94114377 117.26020725 290.73827509 117.26342177 289.49895585 C117.27001274 286.16809181 117.26764883 282.83745373 117.26144934 279.50660348 C117.25692215 275.91149895 117.26390987 272.31641409 117.26940918 268.72131348 C117.27830142 261.68221557 117.27638208 254.64316033 117.2705839 247.60406075 C117.26606747 241.88436382 117.26545442 236.16467883 117.26763153 230.44498062 C117.26809123 229.22399806 117.26809123 229.22399806 117.26856022 227.97834919 C117.26919966 226.32478331 117.26984809 224.67121744 117.2705054 223.01765157 C117.27620801 207.51370312 117.2696515 192.00977833 117.25890467 176.50583376 C117.24996585 163.19805051 117.25152405 149.89030215 117.26074219 136.58251953 C117.27144023 121.13101411 117.27566224 105.6795294 117.26951766 90.22802079 C117.26888055 88.58114314 117.26825181 86.9342655 117.26763153 85.28738785 C117.26732298 84.4770722 117.26701443 83.66675656 117.26669653 82.8318859 C117.26496844 77.1169622 117.26788707 71.40205164 117.27259064 65.68712997 C117.27819414 58.72573912 117.27669407 51.76439338 117.26602915 44.80300771 C117.26076579 41.25012771 117.258727 37.69732299 117.26532745 34.14444351 C117.27236733 30.29692633 117.26397285 26.44953298 117.25396729 22.60202026 C117.25842873 21.47382555 117.26289017 20.34563083 117.26748681 19.1832484 C117.26227132 18.1548661 117.25705582 17.1264838 117.25168228 16.0669384 C117.25135758 15.1786075 117.25103287 14.2902766 117.25069833 13.37502658 C116.98223007 10.83165399 116.28253569 9.19341604 115 7 C91.01188525 6.289046 68.54026945 9.56537846 50.21875 26.62890625 C25.02051054 53.55730651 17.43822406 95.21170376 11.16992188 130.13989258 C11.03065781 130.91479034 10.89139374 131.68968811 10.74790955 132.48806763 C10.48714269 133.94900224 10.22977873 135.41054963 9.97633362 136.87277222 C9.10817525 141.7836495 9.10817525 141.7836495 8 144 C5.36 144 2.72 144 0 144 C0 96.48 0 48.96 0 0 Z " fill="#338DB5" transform="translate(1861,189)"/>
<path d="M0 0 C0.33 54.78 0.66 109.56 1 166 C3.475 159.07 3.475 159.07 6 152 C13.01824761 136.27796291 22.87126462 122.34446142 39.3125 115.625 C45.50146965 113.59951902 51.52166663 113.1699235 58 113 C58.65274902 112.97421875 59.30549805 112.9484375 59.97802734 112.921875 C81.16454312 112.12030429 100.8267222 116.1884685 116.9921875 130.80078125 C129.99678668 144.29666529 132.45992698 162.38438264 132.41650391 180.3112793 C132.42390567 181.78629741 132.43261728 183.26130943 132.44252014 184.73631287 C132.46559124 188.69426951 132.47097761 192.65206876 132.47317934 196.6100843 C132.47888711 200.76735551 132.50218701 204.92452762 132.52377319 209.08174133 C132.56211347 216.93649074 132.58645137 224.79121131 132.60489786 232.64603025 C132.63846306 246.74147529 132.69605031 260.83683436 132.75888956 274.93217593 C132.78036782 279.87548822 132.79564361 284.81877042 132.80572915 289.7621187 C132.81273716 292.82694728 132.82361428 295.8917541 132.83537102 298.95656776 C132.83993438 300.37920306 132.84277781 301.80184505 132.84379387 303.2244873 C132.84536244 305.16262175 132.85348659 307.10074762 132.86196899 309.03886414 C132.86452509 310.12406688 132.86708118 311.20926962 132.86971474 312.32735729 C132.88463393 315.10333745 132.88463393 315.10333745 134 318 C145.67662203 323.95746022 161.13372993 323.34984274 174 324 C174 325.98 174 327.96 174 330 C131.1 330 88.2 330 44 330 C44 328.02 44 326.04 44 324 C44.63389648 323.95512451 45.26779297 323.91024902 45.92089844 323.86401367 C64.08015687 323.61052128 64.08015687 323.61052128 80.734375 317.77734375 C83.55820488 313.81178018 83.12646946 308.35273487 83.13371277 303.65359497 C83.13797775 302.39793228 83.14224274 301.14226959 83.14663696 299.84855652 C83.14628749 298.46951291 83.14582598 297.09046932 83.14526367 295.71142578 C83.14825832 294.24883438 83.15166156 292.78624376 83.15544128 291.32365417 C83.1642601 287.35818136 83.16661867 283.39273015 83.16725707 279.42724848 C83.16796944 276.94292001 83.17010742 274.45859698 83.17275429 271.97426987 C83.18200478 263.28687952 83.18609005 254.59950449 83.18530273 245.91210938 C83.18470388 237.84955397 83.19521847 229.78706588 83.2110464 221.72452748 C83.22419075 214.77813854 83.22948367 207.83177139 83.22884732 200.88537014 C83.22859411 196.74784724 83.23134611 192.61038405 83.24202538 188.47287369 C83.2518216 184.57073903 83.25170806 180.66871968 83.24450874 176.76658058 C83.24347663 175.34779374 83.24574217 173.92899928 83.2518692 172.5102253 C83.54881184 147.76869253 83.54881184 147.76869253 72.70703125 126.43359375 C66.27144591 121.02888021 58.95608881 119.58813343 50.7421875 119.734375 C39.65696654 120.80815709 32.68722347 126.87946427 25.359375 134.765625 C17.4502074 144.4130712 12.16905582 156.60740725 8.1875 168.3125 C7.92203369 169.07973389 7.65656738 169.84696777 7.38305664 170.63745117 C1.44375708 189.0707247 0.43074483 206.97303989 0.57421875 226.22265625 C0.57915446 228.78763066 0.58244563 231.35260871 0.58418274 233.91758728 C0.591761 239.2467003 0.61158944 244.57553422 0.64331055 249.90454102 C0.68395653 256.74180329 0.70106238 263.57891506 0.71061993 270.41628361 C0.71979379 276.95593027 0.74043197 283.49553949 0.76171875 290.03515625 C0.7651145 291.28131273 0.76851025 292.52746922 0.7720089 293.81138802 C0.78354411 297.31710111 0.80205062 300.8227012 0.82299805 304.32836914 C0.82568695 305.37084808 0.82837585 306.41332703 0.83114624 307.48739624 C0.83830154 308.43865891 0.84545685 309.38992157 0.85282898 310.37001038 C0.85710246 311.19669251 0.86137594 312.02337465 0.86577892 312.87510777 C0.92101037 315.18935341 0.92101037 315.18935341 2 318 C11.92209416 323.90600843 25.76889216 323.2803 37 324 C37 325.98 37 327.96 37 330 C-7.55 330 -52.1 330 -98 330 C-98 328.02 -98 326.04 -98 324 C-97.09870361 323.95512451 -96.19740723 323.91024902 -95.26879883 323.86401367 C-91.85933633 323.6886599 -88.45075736 323.50281306 -85.04223633 323.31030273 C-83.57923904 323.22972815 -82.11601811 323.15309709 -80.65258789 323.08081055 C-65.22359175 322.87631192 -65.22359175 322.87631192 -51.21020508 317.77416992 C-47.70487781 312.63533328 -48.85759258 304.7036983 -48.86628723 298.73365784 C-48.8628889 297.02440979 -48.8628889 297.02440979 -48.85942191 295.28063148 C-48.85308855 291.45994521 -48.85391085 287.63929446 -48.85473633 283.81860352 C-48.85228787 281.08034124 -48.8483702 278.34208147 -48.84455872 275.6038208 C-48.8362598 268.93671223 -48.83350423 262.2696125 -48.83294634 255.60249919 C-48.8324709 250.18317361 -48.83041475 244.76385095 -48.82724571 239.34452629 C-48.81844187 223.97626292 -48.81382601 208.60800653 -48.81457619 193.23974062 C-48.81463612 191.99753019 -48.81463612 191.99753019 -48.81469727 190.73022461 C-48.81475859 189.4864961 -48.81475859 189.4864961 -48.81482115 188.21764176 C-48.81522773 174.77559837 -48.80565442 161.33358298 -48.7915589 147.89154769 C-48.77719645 134.08596044 -48.77028862 120.28038685 -48.77115268 106.47479194 C-48.77148465 98.7253097 -48.76873725 90.97585682 -48.75797462 83.2263813 C-48.74887145 76.62959406 -48.74669293 70.03284951 -48.75348405 63.43605871 C-48.75674996 60.07113351 -48.75571733 56.70635709 -48.7481308 53.34142876 C-48.74043505 49.69198759 -48.74503984 46.04276219 -48.75276184 42.39332581 C-48.74761828 41.33223384 -48.74247471 40.27114187 -48.73717529 39.17789561 C-48.76886738 32.40983002 -48.88878805 26.71441536 -53.1875 21.1875 C-58.48275006 17.06897217 -64.60317379 16.6750842 -71.12109375 16.3671875 C-72.23823509 16.30484421 -72.23823509 16.30484421 -73.37794495 16.24124146 C-75.73079574 16.11164961 -78.08404941 15.99314269 -80.4375 15.875 C-82.04365957 15.78849579 -83.64978008 15.70126319 -85.25585938 15.61328125 C-89.17017199 15.40043391 -93.08488516 15.19751816 -97 15 C-97 13.02 -97 11.04 -97 9 C-78.33508945 6.84805867 -59.65584758 4.95223836 -40.94897461 3.21020508 C-37.34149187 2.87419318 -33.73447538 2.53342002 -30.12755108 2.19147205 C-27.30441082 1.92440622 -24.4810304 1.65995353 -21.65757179 1.39627647 C-19.68658069 1.21170063 -17.71580747 1.02480283 -15.74504089 0.83784485 C-14.55131363 0.72740341 -13.35758636 0.61696198 -12.12768555 0.50317383 C-11.08549362 0.40563309 -10.0433017 0.30809235 -8.9695282 0.20759583 C-5.98616608 -0.00096711 -2.99064341 0 0 0 Z " fill="#338DB5" transform="translate(2667,185)"/>
<path d="M0 0 C66.33 0 132.66 0 201 0 C201 1.98 201 3.96 201 6 C200.06953857 6.04487549 199.13907715 6.08975098 198.18041992 6.13598633 C167.63640647 7.20078759 167.63640647 7.20078759 138 14 C135.39130073 23.94549134 135.7141512 33.83042305 135.72875977 44.03515625 C135.72436755 46.06651517 135.7190636 48.0978723 135.71292114 50.12922668 C135.70145555 54.49052022 135.69596423 58.85176538 135.69503975 63.21307373 C135.6930906 70.12467822 135.67498936 77.03618358 135.65428162 83.94775391 C135.60520172 101.11929599 135.57427159 118.29086498 135.55297852 135.46246338 C135.53640821 148.80343061 135.51345452 162.14431254 135.46995777 175.48522282 C135.44831467 182.33950874 135.44011112 189.19363209 135.44235051 196.04794979 C135.44066984 200.33504501 135.42653621 204.62203636 135.40913773 208.90909386 C135.40359377 210.87852909 135.40300086 212.84798637 135.40807533 214.81742287 C135.4436325 230.25038371 134.48302638 245.6373521 129.25 260.3125 C128.99250977 261.05266357 128.73501953 261.79282715 128.46972656 262.55541992 C119.12838617 288.47399494 99.3688903 308.65026423 74.6484375 320.4375 C51.52591366 330.3400798 20.91141345 335.51950265 -3 326 C-18.77879106 319.02335241 -33.68146679 306.96019106 -41 291 C-47.91426357 271.8341466 -49.83689387 252.4321208 -41.8671875 233.27734375 C-36.13294449 222.20759649 -26.89426937 214.13323737 -15.0625 210.0625 C-5.26033924 207.56147325 5.30422473 208.09919444 14.15234375 213.25390625 C22.72325506 219.2913812 29.01243543 227.06308108 31.58203125 237.32421875 C33.27173126 248.14145712 32.73042849 258.91063104 26.52734375 268.20703125 C20.03306024 276.23660637 11.29103714 282.36973669 1 284 C-9.68022576 284.99466596 -19.4405358 283.88307144 -28 277 C-28.46115222 285.28793023 -28.38909047 291.81286436 -24 299 C-23.5875 299.67546875 -23.175 300.3509375 -22.75 301.046875 C-15.28840437 311.98489586 -3.34775517 318.8661475 9.25 322.375 C23.88429188 324.98922894 40.47637319 323.44764034 53 315 C68.72172242 301.29529997 69.19986032 280.3208439 70.58367157 260.9767971 C71.25085033 250.63643851 71.28017438 240.31209404 71.25878906 229.9543457 C71.26150973 227.68603403 71.2650766 225.41772323 71.26940918 223.14941406 C71.27839786 217.08247268 71.27504853 211.01560056 71.26865101 204.94865823 C71.26353175 198.56588339 71.26829763 192.18311386 71.27142334 185.80033875 C71.27527138 174.42885653 71.26913088 163.05741231 71.25890467 151.68593653 C71.24993167 141.38850949 71.2515603 131.09112745 71.26074219 120.79370117 C71.27145111 108.77839279 71.27542919 96.76311828 71.26951766 84.74780339 C71.26640487 78.40708185 71.26597074 72.0663913 71.27259064 65.72567177 C71.27836555 59.78203611 71.27436453 53.83848575 71.26280212 47.89485931 C71.26015861 45.71598896 71.26091536 43.53711143 71.26532745 41.35824394 C71.27079507 38.38422495 71.26393448 35.41047926 71.25396729 32.43647766 C71.25842873 31.57579361 71.26289017 30.71510955 71.26748681 29.82834417 C71.23510086 24.84474866 70.69131392 20.70440477 69 16 C64.08890975 11.23016834 55.56990251 10.75960383 49.125 9.875 C47.9805542 9.71032227 46.8361084 9.54564453 45.65698242 9.37597656 C30.5171505 7.34080917 15.25015024 6.6803041 0 6 C0 4.02 0 2.04 0 0 Z " fill="#282A2B" transform="translate(779,189)"/>
<path d="M0 0 C0.64710938 0.52078125 1.29421875 1.0415625 1.9609375 1.578125 C10.82014603 9.51533446 17.26402709 22.42417199 18.27997017 34.26231575 C18.3932477 38.06654452 18.41431081 41.86487823 18.40063477 45.67016602 C18.40638823 47.1250057 18.41347546 48.57984063 18.42178345 50.03466797 C18.43681182 53.14862555 18.44267818 56.26241262 18.44125557 59.37640572 C18.43920947 64.30709858 18.4588709 69.23756462 18.48143005 74.16819763 C18.52228149 83.74427687 18.54098048 93.32033772 18.55760193 102.89648438 C18.58000239 115.08903491 18.61363056 127.28153233 18.66480106 139.47399658 C18.68464129 144.36883484 18.69429719 149.26355332 18.69575322 154.15843022 C18.69851602 157.20936773 18.70937291 160.26023971 18.72226334 163.3111496 C18.72651916 164.71835913 18.72741927 166.12558374 18.72458839 167.53279686 C18.7114024 174.9408622 18.74545498 181.89730007 21 189 C30.95301469 195.17086911 47.55995527 194.32074734 59 195 C59 196.98 59 198.96 59 201 C16.43 201 -26.14 201 -70 201 C-70 199.02 -70 197.04 -70 195 C-69.33581055 194.95512451 -68.67162109 194.91024902 -67.98730469 194.86401367 C-49.51113976 194.22200098 -49.51113976 194.22200098 -32 189 C-30.89762365 185.69287095 -30.86864605 183.23909335 -30.85955811 179.75534058 C-30.85384796 178.44634796 -30.84813782 177.13735535 -30.84225464 175.78869629 C-30.84100921 174.33422861 -30.83988413 172.87976082 -30.83886719 171.42529297 C-30.83423831 169.8958016 -30.82921355 168.36631138 -30.82382202 166.83682251 C-30.81069066 162.67483486 -30.80425 158.51286335 -30.79981136 154.35085821 C-30.79687789 151.74475864 -30.79277226 149.13866344 -30.78830719 146.53256607 C-30.77462168 138.3627871 -30.76496385 130.19301817 -30.7611053 122.02322853 C-30.75664131 112.62460077 -30.73917551 103.22611967 -30.7101047 93.82753646 C-30.68837535 86.54658814 -30.67839483 79.26568068 -30.67706418 71.98470032 C-30.67602287 67.64529985 -30.67026223 63.30603701 -30.65224457 58.96667099 C-30.6355715 54.87083484 -30.63369989 50.77523683 -30.64238358 46.67937851 C-30.64314417 45.19005691 -30.63894342 43.70072151 -30.62892532 42.21143341 C-30.57892934 34.30363199 -31.00730688 26.68917563 -32.35040283 18.89382935 C-32.52803512 17.85637268 -32.52803512 17.85637268 -32.70925593 16.7979573 C-34.38090547 7.95449063 -37.90493032 -0.47145482 -45.2890625 -5.953125 C-51.3343453 -9.65206516 -57.6319068 -9.76633214 -64.44921875 -8.5703125 C-75.66998026 -5.71668084 -83.7724197 1.44518426 -90 11 C-103.09227801 33.04324862 -110.15765785 60.6774711 -110.14526367 86.19873047 C-110.14862228 87.19966736 -110.1519809 88.20060425 -110.15544128 89.23187256 C-110.16490775 92.52699031 -110.16689216 95.82205702 -110.16796875 99.1171875 C-110.17118406 101.41732809 -110.17454834 103.71746848 -110.17805481 106.01760864 C-110.18403512 110.8341723 -110.18589581 115.65071805 -110.18530273 120.46728516 C-110.18520112 126.6261557 -110.19885801 132.78491096 -110.21607494 138.9437542 C-110.22721562 143.69309004 -110.22922131 148.44239818 -110.22869301 153.19174576 C-110.22986982 155.461838 -110.23427476 157.73193103 -110.24202538 160.00201035 C-110.25186797 163.18224833 -110.24893043 166.36223813 -110.24291992 169.54248047 C-110.24853943 170.47160248 -110.25415894 171.40072449 -110.25994873 172.35800171 C-110.23313973 177.96542669 -110.04305268 183.70980176 -108 189 C-99.31454272 195.26160874 -84.37190995 194.26604734 -74 195 C-74 196.98 -74 198.96 -74 201 C-116.57 201 -159.14 201 -203 201 C-203 199.02 -203 197.04 -203 195 C-202.25016846 194.95512451 -201.50033691 194.91024902 -200.7277832 194.86401367 C-197.25522765 194.64973087 -193.78396946 194.41868858 -190.3125 194.1875 C-189.13365234 194.11724609 -187.95480469 194.04699219 -186.74023438 193.97460938 C-173.49484402 193.12489666 -173.49484402 193.12489666 -161 189 C-159.83229413 185.49688239 -159.86518977 182.74109131 -159.85282898 179.04266357 C-159.84915229 178.3304176 -159.8454756 177.61817162 -159.8416875 176.88434243 C-159.83065184 174.49157259 -159.82680703 172.09884617 -159.82299805 169.70605469 C-159.81673332 167.9928524 -159.81008651 166.27965147 -159.80308533 164.56645203 C-159.78204412 158.93493598 -159.77168307 153.30341965 -159.76171875 147.671875 C-159.75767126 145.73327876 -159.75355434 143.79468267 -159.74936867 141.85608673 C-159.73031708 132.74873928 -159.71608583 123.64139994 -159.7077567 114.5340364 C-159.69798315 104.02084725 -159.67166042 93.50786858 -159.63125581 82.9947536 C-159.60109784 74.86895911 -159.58628813 66.74322498 -159.58297569 58.61737561 C-159.58062488 53.76405581 -159.57166036 48.91096088 -159.54651451 44.05770111 C-159.52323431 39.49073316 -159.51900033 34.92413815 -159.52927589 30.35712624 C-159.52977138 28.68299176 -159.52344729 27.00883893 -159.50971985 25.33476067 C-159.49199374 23.04448554 -159.49910931 20.75554785 -159.51225281 18.465271 C-159.50986445 17.18510983 -159.5074761 15.90494865 -159.50501537 14.58599472 C-160.11701219 10.15228658 -161.64723325 7.77302222 -164 4 C-164 3.34 -164 2.68 -164 2 C-176.6597396 0.53980607 -189.26782256 -0.45820522 -202 -1 C-202 -2.98 -202 -4.96 -202 -7 C-183.43921228 -8.95082625 -164.85906469 -10.67512154 -146.27099609 -12.34341431 C-143.71542817 -12.57279614 -141.15992665 -12.80291899 -138.60449219 -13.03378296 C-134.96440525 -13.36218903 -131.32405185 -13.687456 -127.68359375 -14.01171875 C-126.57950668 -14.11158081 -125.47541962 -14.21144287 -124.33787537 -14.31433105 C-123.31299515 -14.40484741 -122.28811493 -14.49536377 -121.23217773 -14.58862305 C-119.89231056 -14.70828682 -119.89231056 -14.70828682 -118.52537537 -14.83036804 C-116.02192107 -14.99852754 -113.50909566 -15 -111 -15 C-110.67 2.49 -110.34 19.98 -110 38 C-108.02 32.06 -106.04 26.12 -104 20 C-96.69672586 5.75262913 -87.86366645 -8.5650755 -72 -14 C-69.31324119 -14.51111282 -66.76883 -14.91361321 -64.0625 -15.1875 C-63.32523682 -15.26572998 -62.58797363 -15.34395996 -61.82836914 -15.42456055 C-38.94124462 -17.66274901 -18.25130976 -14.9486918 0 0 Z " fill="#282A2B" transform="translate(1793,314)"/>
<path d="M0 0 C8.05641315 6.8280811 13.54972176 14.40217912 15.30078125 24.96484375 C15.59669348 29.67158565 15.59140429 34.3700611 15.58789062 39.08496094 C15.59392368 40.50508005 15.60085015 41.9251956 15.6085968 43.3453064 C15.62342611 46.3910501 15.63222005 49.43672893 15.63630676 52.4825058 C15.64305626 57.30881705 15.6648539 62.13499058 15.68884277 66.96124268 C15.73769965 77.21241062 15.77007027 87.46360782 15.80078125 97.71484375 C15.83393536 108.77071932 15.87004444 119.82654059 15.92491198 130.88233304 C15.94811053 135.66927892 15.96196382 140.45612899 15.96840668 145.24312544 C15.97439227 148.23521833 15.98852889 151.22723466 16.00475121 154.21928787 C16.01332258 156.24461428 16.01221508 158.26997463 16.01069641 160.2953186 C15.96746953 176.46853847 15.96746953 176.46853847 22.30078125 190.96484375 C25.70167288 194.08232774 29.16977583 195.21278828 33.73828125 195.46484375 C38.59422456 195.18357957 42.52430582 194.11328388 46.30078125 190.96484375 C57.46383323 176.90229774 54.83513568 152.63928193 54.98828125 135.90234375 C55.02152517 133.37823828 55.0560211 130.85414898 55.09179688 128.33007812 C55.17587912 122.20844459 55.24455902 116.0867933 55.30078125 109.96484375 C57.61078125 109.96484375 59.92078125 109.96484375 62.30078125 109.96484375 C62.37084313 117.8067964 62.42387371 125.64867326 62.45621777 133.49086189 C62.4717553 137.13383302 62.49277009 140.77658724 62.52709961 144.41943359 C62.56012545 147.94673615 62.57772333 151.47383247 62.58541298 155.00127792 C62.5935083 156.97619184 62.61685511 158.95102486 62.64067078 160.92581177 C62.64274114 172.25771397 62.12463925 187.04396407 53.65234375 195.63671875 C40.35222753 206.60252886 22.54346411 205.74536537 6.30078125 204.96484375 C-4.35518577 203.92710579 -13.76426531 199.81843116 -21.1328125 191.98828125 C-25.91189235 185.81480653 -29.69921875 177.80660872 -29.69921875 169.96484375 C-30.35921875 169.96484375 -31.01921875 169.96484375 -31.69921875 169.96484375 C-31.95574219 170.84398437 -32.21226563 171.723125 -32.4765625 172.62890625 C-37.06039958 185.1356055 -47.90114752 194.21666918 -59.64453125 199.71484375 C-78.51572318 207.43707063 -103.58824648 208.17131717 -122.69921875 200.96484375 C-136.49102253 194.9584904 -145.89572599 186.91860294 -151.953125 173.10546875 C-157.56367557 157.70089087 -155.83636554 140.51190456 -149.01171875 125.83984375 C-139.72027646 108.37284318 -123.65589149 96.46551282 -105.09814453 90.09741211 C-94.79312917 86.9975718 -83.91976608 86.01445978 -73.26196289 84.78857422 C-52.85697396 82.95881951 -52.85697396 82.95881951 -36.44921875 72.21484375 C-32.69376363 65.24042711 -32.39918555 58.43967078 -32.43359375 50.69140625 C-32.4316803 49.72762054 -32.42976685 48.76383484 -32.42779541 47.77084351 C-32.42644097 45.7420831 -32.43008532 43.71331381 -32.43847656 41.68457031 C-32.44916295 38.60591819 -32.43856791 35.52785266 -32.42578125 32.44921875 C-32.42710343 30.46744665 -32.42966704 28.4856749 -32.43359375 26.50390625 C-32.42954529 25.59629547 -32.42549683 24.68868469 -32.42132568 23.75357056 C-32.48480534 14.94947006 -33.31490997 5.27937643 -38.69921875 -2.03515625 C-48.87783152 -9.92877431 -64.1124874 -9.04752543 -76.34375 -7.60546875 C-88.44753566 -5.40478045 -99.34192041 -0.82245835 -107.24609375 8.8515625 C-108.607393 10.83130147 -109.69551239 12.7852265 -110.69921875 14.96484375 C-109.72082031 14.91263672 -109.72082031 14.91263672 -108.72265625 14.859375 C-102.188246 14.65698176 -97.85847533 15.00304071 -92.88671875 19.6640625 C-87.16323594 25.73333907 -84.61201733 31.11868499 -84.32421875 39.46484375 C-84.58047658 47.19528837 -86.78363316 52.72099677 -92.01953125 58.42578125 C-98.45745338 64.32471455 -105.22073925 65.33452032 -113.6640625 65.2421875 C-121.00790723 64.57112833 -126.66261983 60.11678463 -131.69921875 54.96484375 C-137.72562441 47.14680398 -138.55466093 39.57787527 -137.69921875 29.96484375 C-135.13915134 17.23723588 -129.26888375 7.5545151 -118.69921875 -0.03515625 C-85.80744596 -19.78664528 -31.68730038 -23.89158249 0 0 Z M-35.82421875 81.77734375 C-44.15166243 88.1134422 -54.25981676 88.45332864 -64.32226562 89.80664062 C-76.7830386 91.67794706 -86.63399384 95.40131258 -94.796875 105.26171875 C-108.27729767 124.41665199 -107.7344326 151.80813295 -104.94921875 174.08984375 C-103.49092471 182.23369709 -101.02644427 191.04700556 -94.08984375 196.1484375 C-87.22956649 200.24476008 -80.01878704 199.82671747 -72.390625 198.3046875 C-58.40381926 194.49909018 -47.30345855 185.30480543 -39.82421875 172.96484375 C-34.75726975 163.74581154 -32.56719729 155.21707549 -32.58569336 144.67431641 C-32.58554733 143.97118317 -32.58540131 143.26804993 -32.58525085 142.54360962 C-32.58594291 140.2386762 -32.59370195 137.93382541 -32.6015625 135.62890625 C-32.60342919 134.02322433 -32.60485191 132.41754183 -32.60585022 130.81185913 C-32.6096556 126.60002043 -32.61946887 122.38821659 -32.6305542 118.1763916 C-32.64081098 113.87280753 -32.64535696 109.56921779 -32.65039062 105.265625 C-32.66109302 96.83201531 -32.67814553 88.39843388 -32.69921875 79.96484375 C-34.03791107 79.85668598 -34.03791107 79.85668598 -35.82421875 81.77734375 Z " fill="#282A2B" transform="translate(1518.69921875,314.03515625)"/>
<path d="M0 0 C38.28 0 76.56 0 116 0 C116 1.98 116 3.96 116 6 C115.24904053 6.01981934 114.49808105 6.03963867 113.72436523 6.06005859 C110.29508043 6.15579401 106.86636458 6.26527633 103.4375 6.375 C102.25607422 6.4059375 101.07464844 6.436875 99.85742188 6.46875 C93.91248725 6.66857974 88.61301523 6.97239097 83 9 C81.91305561 12.97744103 82.11543083 15.28421853 83.52734375 19.13671875 C84.0836145 20.67863892 84.0836145 20.67863892 84.65112305 22.25170898 C85.07562744 23.38552002 85.50013184 24.51933105 85.9375 25.6875 C86.38714111 26.91605713 86.83678223 28.14461426 87.30004883 29.41040039 C88.84386243 33.6155753 90.41853416 37.80886067 92 42 C92.27497314 42.72872314 92.54994629 43.45744629 92.83325195 44.20825195 C95.59370328 51.51439011 98.37198444 58.81368169 101.16821289 66.10620117 C105.24712508 76.74773898 109.28587575 87.40337159 113.28206062 98.0762043 C114.07162281 100.18447464 114.86190917 102.29247203 115.65245056 104.40037537 C116.17886359 105.80410764 116.70527656 107.20783994 117.23168945 108.61157227 C117.4920357 109.30576358 117.75238195 109.99995489 118.02061749 110.7151823 C119.58489988 114.88770279 121.1443928 119.06197773 122.70082188 123.23743343 C123.67726095 125.85344317 124.65819245 128.46775165 125.6403141 131.08163261 C126.32246451 132.90155515 126.99895977 134.72359417 127.67533875 136.54566956 C128.08460098 137.63274704 128.49386322 138.71982452 128.91552734 139.83984375 C129.27141937 140.79238037 129.6273114 141.74491699 129.99398804 142.72631836 C130.89772741 145.13807861 130.89772741 145.13807861 133 147 C133.37584229 145.89229248 133.75168457 144.78458496 134.13891602 143.64331055 C135.9445346 138.32394388 137.75320473 133.00561707 139.5625 127.6875 C139.89580322 126.70737946 140.22910645 125.72725891 140.57250977 124.71743774 C145.3214064 110.76011779 150.14864929 96.83257641 155.03848267 82.92407227 C169.18679022 50.84189866 169.18679022 50.84189866 169.625 17.75 C166.66176238 12.6629402 162.50274197 10.69512705 157 9 C150.72034519 7.65766268 144.36727124 6.80408045 138 6 C138 4.02 138 2.04 138 0 C166.05 0 194.1 0 223 0 C223 1.98 223 3.96 223 6 C221.88882812 6.15855469 220.77765625 6.31710937 219.6328125 6.48046875 C207.33732255 8.358255 197.29659071 10.69307647 189.41444397 21.09178162 C185.15547782 26.9812279 181.92714331 32.84175101 179.12109375 39.53515625 C178.69871933 40.52620865 178.27634491 41.51726105 177.84117126 42.53834534 C173.04599501 53.98358536 169.0361377 65.68786802 165.0625 77.4375 C164.24592281 79.82807482 163.42852039 82.21836789 162.61035156 84.60839844 C160.06042884 92.0678268 157.52926147 99.53354594 155 107 C154.17379933 109.43575508 153.34746597 111.87146516 152.52099609 114.30712891 C149.29065813 123.82869588 146.06148921 133.35065316 142.83935547 142.875 C137.91402066 157.42432437 132.90900693 171.94273821 127.80960083 186.43191528 C123.87148095 197.62794518 120.0253588 208.8526111 116.25494957 220.10613823 C115.52866285 222.27334495 114.80132191 224.44019522 114.07368469 226.60694885 C113.58465669 228.06355818 113.09565835 229.52017747 112.60668945 230.97680664 C112.36367002 231.7007515 112.12065058 232.42469637 111.87026691 233.17057896 C110.67423389 236.73619267 109.48189189 240.30296328 108.29769897 243.87252808 C103.77740258 257.49511288 99.18478843 271.05608941 93.70703125 284.33203125 C93.32157639 285.27261887 92.93612152 286.21320648 92.53898621 287.18229675 C86.97914817 300.29643789 79.69259359 313.08273945 66.26171875 319.16015625 C53.18494397 324.01595345 33.12648126 322.31369746 20.4140625 316.8984375 C18.40659834 315.74172023 16.73812729 314.52583693 15 313 C14.0925 312.21625 13.185 311.4325 12.25 310.625 C6.05857187 302.46071002 4.75854878 288.81399856 6 279 C7.79757072 271.29782611 12.66744185 266.47374755 19 262 C25.23100866 258.39448431 32.19396018 257.96085626 39.16796875 259.46875 C45.9466423 261.67149111 51.09150102 265.78241384 54.375 272.125 C57.90562735 279.76957575 58.5512717 289.34618489 55.875 297.375 C52.58551028 304.59360244 48.0797764 308.48338852 40.7578125 311.37109375 C40.17773438 311.57863281 39.59765625 311.78617188 39 312 C45.59091044 315.04570723 52.90734759 315.07149064 59.89453125 313.2421875 C74.5295564 307.6690295 79.71605781 294.13603758 85.78311157 280.72457886 C103.29548454 246.10469008 103.29548454 246.10469008 105.26928711 209.20214844 C103.42397441 204.93328751 101.40731408 200.80845003 99.11051941 196.76803589 C94.98486432 189.48376192 92.37834315 181.677474 89.58657837 173.80981445 C87.94199896 169.21799883 86.21777204 164.65614257 84.50390625 160.08984375 C79.47931764 146.63867879 74.5220933 133.16272961 69.5625 119.6875 C68.66427311 117.24811064 67.76599842 114.80873887 66.86767578 112.36938477 C63.44966353 103.08745217 60.03207365 93.80536451 56.61669922 84.52246094 C52.72617361 73.95022445 48.82691272 63.38137709 44.90080261 52.82229614 C42.97002354 47.62677042 41.05632939 42.4253701 39.15563965 37.21876526 C37.97536686 33.99586753 36.78116922 30.77826604 35.58300781 27.5619812 C35.0353294 26.08301272 34.49348296 24.60186913 33.95800781 23.11843872 C33.23235133 21.11054327 32.48619887 19.1114973 31.734375 17.11328125 C31.32413086 15.99735596 30.91388672 14.88143066 30.49121094 13.73168945 C28.41579551 9.92981925 25.87952687 8.55751507 21.80078125 7.34765625 C17.60605967 6.82697254 13.40847406 6.62950553 9.1875 6.4375 C7.86202148 6.37272461 7.86202148 6.37272461 6.50976562 6.30664062 C4.34000377 6.20108464 2.1700209 6.10008929 0 6 C0 4.02 0 2.04 0 0 Z " fill="#282A2B" transform="translate(1129,299)"/>
<path d="M0 0 C22.8004348 19.00036233 30.56351428 48.16739827 33.2890625 76.54296875 C33.63085671 82.76362344 33.6015625 89.00043119 33.6015625 95.23046875 C-9.2984375 95.23046875 -52.1984375 95.23046875 -96.3984375 95.23046875 C-95.34159505 143.5478477 -95.34159505 143.5478477 -73.84375 186.22265625 C-62.52366673 195.51742111 -49.57571256 197.31543337 -35.3984375 196.23046875 C-15.69788066 193.59950866 1.52272814 182.92763235 13.6015625 167.23046875 C24.4028209 151.71965693 27.74799432 134.63531044 29.6015625 116.23046875 C31.2515625 116.23046875 32.9015625 116.23046875 34.6015625 116.23046875 C35.38677806 139.00171985 27.97196117 160.37527307 12.6015625 177.23046875 C11.72177734 178.21466797 11.72177734 178.21466797 10.82421875 179.21875 C-4.24955312 195.21468203 -26.29405447 202.71881911 -47.83984375 203.453125 C-73.5858157 203.99851857 -94.55817625 197.01838211 -114.3984375 180.23046875 C-115.01203125 179.7509375 -115.625625 179.27140625 -116.2578125 178.77734375 C-135.14237556 163.70434388 -146.50959441 138.25970979 -149.21533203 114.60595703 C-151.80800859 80.97029983 -146.94016896 45.98897644 -124.41015625 19.51953125 C-123.74628906 18.76414062 -123.08242187 18.00875 -122.3984375 17.23046875 C-121.72425781 16.41320312 -121.05007812 15.5959375 -120.35546875 14.75390625 C-90.31141988 -20.59847184 -37.57605335 -27.72304913 0 0 Z M-78.64453125 1.859375 C-89.45530309 16.47438281 -93.02284565 34.32028854 -95.2109375 51.98046875 C-95.33509033 52.9535498 -95.45924316 53.92663086 -95.5871582 54.92919922 C-96.80709576 66.12381445 -96.3984375 76.78668084 -96.3984375 88.23046875 C-68.0184375 88.23046875 -39.6384375 88.23046875 -10.3984375 88.23046875 C-9.83166442 40.35672221 -9.83166442 40.35672221 -28.3984375 -2.76953125 C-34.15858949 -8.40470953 -40.08790217 -10.7641868 -48.1484375 -11.08203125 C-59.42443804 -10.80825885 -70.88260199 -6.51486423 -78.64453125 1.859375 Z " fill="#338DB5" transform="translate(2320.3984375,315.76953125)"/>
<path d="M0 0 C11.62778539 9.90269312 17.29607029 22.89814604 18.5078125 37.953125 C18.75857128 45.14154329 18.08820401 50.60645962 14.25 56.75 C13.86070312 57.37519531 13.47140625 58.00039063 13.0703125 58.64453125 C8.8640804 64.35654467 2.8812082 67.52386486 -3.75 69.75 C-11.45550612 70.91426909 -18.3515037 70.42699611 -24.75 65.75 C-30.4384933 60.83721033 -34.39059873 55.58809402 -34.953125 48.015625 C-35.08105197 39.78565678 -34.16145085 34.33272698 -29.5625 27.5 C-23.72399545 21.79123999 -17.78719984 20.12209259 -9.75 19.75 C-12.6013817 9.2831268 -16.23924744 1.32125318 -25.625 -4.625 C-38.92054789 -11.9082971 -54.29922929 -13.44144653 -68.8984375 -9.28125 C-80.27206047 -5.16804936 -86.47685632 1.90922572 -91.875 12.5 C-97.91630479 26.31100427 -100.49397924 41.79814662 -101.75 56.75 C-101.83540039 57.71599121 -101.92080078 58.68198242 -102.00878906 59.67724609 C-102.81180113 69.61991696 -102.99285032 79.52873623 -103 89.5 C-103.00067474 90.35283569 -103.00134949 91.20567139 -103.00204468 92.08435059 C-102.9635734 122.88006634 -100.90224477 158.48615454 -78.5546875 182.06640625 C-69.10065763 191.00985262 -59.54489365 193.19766853 -46.78125 192.953125 C-29.00636945 192.25773368 -12.72741833 183.99571865 -0.42578125 171.36328125 C16.06016055 152.63816229 19.72591307 128.89474554 21.25 104.75 C22.9 104.75 24.55 104.75 26.25 104.75 C27.42258556 131.37203505 20.2125101 157.9417649 2.01953125 177.8828125 C-13.50121733 193.95083712 -34.52907779 201.61222981 -56.67944336 202.04296875 C-86.03966351 202.23764903 -108.35012769 190.60701894 -129.265625 170.30859375 C-151.19415067 147.03828766 -157.64454419 117.94627416 -156.88183594 86.84472656 C-155.46726416 53.6389638 -140.69108733 26.90433068 -116.72070312 4.51806641 C-84.6631129 -24.24321561 -34.27307075 -26.44986982 0 0 Z " fill="#338DB5" transform="translate(2528.75,317.25)"/>
<path d="M0 0 C0.00496522 1.55743282 0.00496522 1.55743282 0.01003075 3.14632893 C0.09094199 28.38331888 0.18323192 53.62024754 0.28752708 78.85715199 C0.33769816 91.06141208 0.38414051 103.2656653 0.421875 115.4699707 C0.4547649 126.10437653 0.49457939 136.73872975 0.54279006 147.37307757 C0.56808494 153.00646064 0.58985735 158.63980867 0.60334396 164.27323341 C0.61613723 169.5714127 0.6381619 174.869472 0.66738319 180.16758537 C0.67648043 182.11589387 0.68215417 184.0642217 0.68421364 186.01255035 C0.68752107 188.66534961 0.70295698 191.31780551 0.7215271 193.97053528 C0.718625 195.13638483 0.718625 195.13638483 0.71566427 196.32578689 C0.75527502 200.09091606 0.85788822 201.78683233 3 205 C5.49360399 205.9951783 5.49360399 205.9951783 8.4375 206.625 C9.40558594 206.86476563 10.37367187 207.10453125 11.37109375 207.3515625 C20.38782264 208.96273257 29.55092672 209.22120731 38.6875 209.5625 C40.33008789 209.62727539 40.33008789 209.62727539 42.00585938 209.69335938 C44.67048597 209.79808269 47.33518311 209.90025779 50 210 C50 211.98 50 213.96 50 216 C1.16 216 -47.68 216 -98 216 C-98 214.02 -98 212.04 -98 210 C-97.09870361 209.95512451 -96.19740723 209.91024902 -95.26879883 209.86401367 C-91.85933633 209.6886599 -88.45075736 209.50281306 -85.04223633 209.31030273 C-83.57923904 209.22972815 -82.11601811 209.15309709 -80.65258789 209.08081055 C-65.32761148 208.7798234 -65.32761148 208.7798234 -51.21020508 203.89916992 C-46.94007952 197.19807921 -48.85183507 185.98291566 -48.85473633 178.25585938 C-48.85174073 176.6617678 -48.84833728 175.06767695 -48.84455872 173.47358704 C-48.83575763 169.16167376 -48.83338231 164.84978035 -48.83274293 160.53785896 C-48.83203048 157.84084493 -48.82989253 155.1438359 -48.82724571 152.44682312 C-48.81800682 143.02948691 -48.81390921 133.61216481 -48.81469727 124.19482422 C-48.81529842 115.42884024 -48.80473549 106.66291772 -48.7889536 97.89694929 C-48.77586614 90.35786892 -48.77051384 82.81880861 -48.77115268 75.27971697 C-48.77140721 70.78254055 -48.76858047 66.28541885 -48.75797462 61.78825378 C-48.74827275 57.55945142 -48.74822876 53.33075589 -48.75549126 49.10194969 C-48.75653434 47.55402151 -48.75419069 46.0060866 -48.7481308 44.45816994 C-48.51336892 31.84763344 -48.51336892 31.84763344 -52.625 20.125 C-57.60799922 15.66652701 -65.00745125 15.66392459 -71.4375 15.3671875 C-72.20304199 15.32562531 -72.96858398 15.28406311 -73.75732422 15.24124146 C-76.17123134 15.11185006 -78.58552358 14.9932384 -81 14.875 C-82.6497773 14.78847662 -84.29951754 14.70124351 -85.94921875 14.61328125 C-89.96576453 14.40065574 -93.98269241 14.19768713 -98 14 C-98 12.02 -98 10.04 -98 8 C-77.70023117 5.88054682 -57.36775541 4.15776885 -37.02730942 2.48467636 C-34.93828257 2.31256448 -32.84933627 2.13950274 -30.76040649 1.96621704 C-26.78715624 1.63690551 -22.81353464 1.31223498 -18.83984375 0.98828125 C-17.63470123 0.88841919 -16.42955872 0.78855713 -15.18789673 0.68566895 C-14.06620087 0.59515259 -12.944505 0.50463623 -11.78881836 0.41137695 C-10.32356972 0.29171318 -10.32356972 0.29171318 -8.82872009 0.16963196 C-5.8789048 -0.00726181 -2.95442052 -0.01109475 0 0 Z " fill="#282A2B" transform="translate(1066,299)"/>
<path d="M0 0 C9.21529007 -0.38869413 16.68930251 2.27699995 23.74609375 8.19921875 C30.01791586 14.40906634 32.71199368 21.63553672 33.09765625 30.40625 C32.89049243 39.28992203 29.93050979 46.9737993 23.7890625 53.43359375 C13.64703253 61.88848074 1.83807352 62.04653148 -10.73876953 61.42578125 C-17.96062448 60.65900611 -23.8442624 57.0313638 -28.77734375 51.84375 C-34.16334289 44.61475411 -36.85577463 36.69458479 -36.05859375 27.68359375 C-34.69248617 19.18482834 -31.15941443 11.79406482 -24.28515625 6.4375 C-16.53499933 1.49187458 -8.93762228 0.61321594 0 0 Z " fill="#1572BE" transform="translate(1035.27734375,182.84375)"/>
<path d="M0 0 C10.21568454 -0.49430732 18.07144646 1.36947804 26.0234375 8.04296875 C32.29525961 14.25281634 34.98933743 21.47928672 35.375 30.25 C35.16815142 39.1201536 32.22412855 46.85895394 26.04296875 53.27734375 C19.43892714 58.84595245 12.52143846 60.80056208 4 61 C4.57621094 60.72285156 5.15242188 60.44570312 5.74609375 60.16015625 C8.65563886 58.66252211 11.35213768 56.8969858 14.09765625 55.12109375 C16 54 16 54 19 53 C20.12153356 51.16925325 20.12153356 51.16925325 21 49 C21.34160156 48.32839844 21.68320313 47.65679687 22.03515625 46.96484375 C22.37417969 46.29582031 22.71320313 45.62679687 23.0625 44.9375 C23.40410156 44.26589844 23.74570313 43.59429687 24.09765625 42.90234375 C27.17380578 36.41712807 27.04443821 28.2532544 25.3515625 21.359375 C22.15563289 13.54710263 16.76449171 7.16948267 9 3.7421875 C6.03108014 2.6404399 3.07278846 1.76819711 0 1 C0 0.67 0 0.34 0 0 Z " fill="#369F56" transform="translate(1033,183)"/>
<path d="M0 0 C4.6157511 0.67350454 8.65377027 2.41495584 12.875 4.3125 C13.65311035 4.66223877 14.4312207 5.01197754 15.23291016 5.37231445 C45.80080815 19.33531716 74.02635152 37.46888401 99 60 C99.895979 60.8034082 99.895979 60.8034082 100.81005859 61.62304688 C114.6270218 74.07102319 127.46306232 87.34397466 138.65087891 102.21826172 C140.04393059 104.05801763 141.46300357 105.87530244 142.88671875 107.69140625 C148.77308885 115.27339083 154.11587166 123.09881839 159.1875 131.25 C160.03513916 132.60847046 160.03513916 132.60847046 160.89990234 133.99438477 C165.2145353 141.0474834 165.2145353 141.0474834 166 145 C163.83383392 142.9685641 162.27428598 141.00659148 160.79296875 138.4375 C160.37853516 137.73262451 159.96410156 137.02774902 159.53710938 136.30151367 C159.09173828 135.54201416 158.64636719 134.78251465 158.1875 134 C149.17512341 118.96663437 138.54727337 105.16161257 127 92 C126.1028125 90.95392578 126.1028125 90.95392578 125.1875 89.88671875 C114.25308413 77.15704065 114.25308413 77.15704065 102.0234375 65.71484375 C99.62389145 63.68125163 97.35606449 61.52736908 95.0625 59.375 C67.52089246 34.36465132 34.16182342 15.35173022 0 1 C0 0.67 0 0.34 0 0 Z " fill="#FFFFFF" transform="translate(456,23)"/>
</svg>
