<?xml version="1.0" standalone="no"?>
<!DOCTYPE svg PUBLIC "-//W3C//DTD SVG 20010904//EN"
 "http://www.w3.org/TR/2001/REC-SVG-20010904/DTD/svg10.dtd">
<svg version="1.0" xmlns="http://www.w3.org/2000/svg"
 width="372.000000pt" height="372.000000pt" viewBox="0 0 372.000000 372.000000"
 preserveAspectRatio="xMidYMid meet">

<g transform="translate(0.000000,372.000000) scale(0.100000,-0.100000)"
fill="#000000" stroke="none">
<path d="M2414 3608 c3 -13 11 -45 19 -73 23 -82 9 -92 -73 -50 -86 44 -170
58 -301 51 -166 -8 -161 -5 -182 -117 -10 -52 -27 -137 -38 -189 -11 -52 -51
-257 -90 -455 -162 -827 -188 -936 -277 -1155 -130 -317 -348 -575 -595 -705
-154 -80 -300 -107 -453 -81 -49 8 -100 18 -113 22 -24 7 -24 6 10 -42 260
-373 601 -621 1027 -745 189 -55 241 -62 482 -66 l226 -4 18 93 c9 51 20 104
22 118 10 55 64 337 68 360 3 14 16 84 30 155 63 328 98 507 118 595 12 52 22
109 24 125 1 17 4 37 7 45 18 47 43 216 34 228 -23 29 -546 5 -729 -34 -48
-10 -90 -15 -95 -11 -18 18 47 181 94 238 69 81 119 87 784 94 540 5 728 10
737 20 3 3 -18 6 -46 6 -76 2 -76 2 -80 23 -3 13 0 16 10 11 10 -6 11 -5 1 6
-20 21 -16 49 7 49 20 0 20 7 20 475 l0 475 -22 1 c-20 0 -20 1 -5 7 16 7 16
9 3 27 -22 29 -19 36 13 33 16 -1 28 -5 25 -9 -9 -15 17 -20 31 -6 13 13 11
16 -13 23 -15 4 -36 7 -47 6 -14 -1 -16 0 -5 5 24 10 41 31 31 38 -5 3 -12 1
-16 -5 -3 -5 -13 -10 -22 -10 -11 0 -14 6 -9 24 4 17 1 28 -10 34 -15 8 -15
10 0 15 11 5 15 3 10 -5 -4 -6 -3 -8 4 -5 15 10 42 -3 42 -19 0 -8 7 -14 17
-14 15 0 14 2 -2 20 -10 11 -26 22 -37 26 -12 3 -17 12 -14 20 3 8 2 13 -3 10
-4 -3 -17 4 -27 16 -11 11 -35 31 -54 44 -19 13 -47 33 -63 44 -24 20 -26 20
-21 3 3 -10 -2 -6 -11 10 -9 15 -24 27 -35 27 -11 0 -20 4 -20 10 0 5 -22 19
-50 32 -27 13 -50 26 -50 30 0 5 -4 8 -9 8 -5 0 -47 18 -93 39 -92 44 -184 81
-199 81 -5 0 -7 -10 -5 -22z m443 -194 c-3 -3 -12 -4 -19 -1 -8 3 -5 6 6 6 11
1 17 -2 13 -5z m121 -83 c11 -7 11 -9 -1 -14 -16 -6 -27 0 -27 15 0 10 11 10
28 -1z m22 -31 c0 -5 -2 -10 -4 -10 -3 0 -8 5 -11 10 -3 6 -1 10 4 10 6 0 11
-4 11 -10z m37 -26 c-3 -3 -12 -4 -19 -1 -8 3 -5 6 6 6 11 1 17 -2 13 -5z
m-47 -24 c0 -5 -4 -10 -10 -10 -5 0 -10 5 -10 10 0 6 5 10 10 10 6 0 10 -4 10
-10z"/>
<path d="M1065 3531 c-6 -4 -52 -30 -103 -57 -248 -130 -531 -399 -682 -647
-136 -225 -240 -525 -257 -745 -3 -45 -10 -85 -15 -88 -11 -7 -10 -244 2 -296
5 -24 14 -79 19 -124 12 -94 37 -212 51 -234 10 -16 6 -18 86 42 27 21 54 38
60 38 5 0 16 -33 22 -73 32 -191 174 -302 383 -300 189 1 324 86 416 259 89
169 173 471 247 886 13 77 116 605 177 912 38 192 66 353 62 357 -5 4 -30 1
-58 -6 -27 -7 -85 -16 -128 -20 -107 -10 -156 5 -206 61 -38 43 -58 52 -76 35z"/>
<path d="M3126 3193 c-6 -14 -5 -15 5 -6 7 7 10 15 7 18 -3 3 -9 -2 -12 -12z"/>
<path d="M3210 3122 c0 -4 10 -13 23 -21 22 -14 22 -14 3 8 -20 22 -26 25 -26
13z"/>
<path d="M3280 2980 c0 -5 5 -10 11 -10 5 0 7 5 4 10 -3 6 -8 10 -11 10 -2 0
-4 -4 -4 -10z"/>
<path d="M3450 2811 c0 -6 4 -13 10 -16 6 -3 7 1 4 9 -7 18 -14 21 -14 7z"/>
<path d="M3225 1730 c3 -5 8 -10 11 -10 2 0 4 5 4 10 0 6 -5 10 -11 10 -5 0
-7 -4 -4 -10z"/>
<path d="M2769 1719 c-7 -4 -13 -18 -14 -31 -1 -12 -5 -30 -8 -38 -4 -8 -8
-33 -11 -55 -2 -22 -9 -62 -15 -88 -6 -27 -8 -53 -5 -59 5 -7 2 -8 -6 -3 -9 6
-12 -1 -8 -28 2 -20 0 -33 -4 -31 -4 3 -8 -2 -8 -11 0 -10 5 -13 13 -9 6 4 4
-2 -5 -13 -11 -12 -18 -36 -18 -61 0 -22 -5 -44 -11 -48 -8 -4 -7 -9 2 -15 9
-6 10 -9 2 -9 -6 0 -14 -19 -18 -42 -3 -24 -13 -65 -22 -91 -8 -27 -13 -57
-10 -68 3 -11 1 -16 -5 -13 -5 4 -9 -4 -7 -17 1 -13 -1 -31 -5 -40 -4 -9 -6
-20 -5 -25 1 -5 0 -16 -4 -24 -10 -25 -70 -333 -70 -363 -1 -15 -5 -27 -10
-27 -4 0 -7 -8 -6 -18 1 -9 -1 -28 -4 -42 -16 -64 -77 -348 -77 -358 0 -14
133 32 138 48 2 5 7 8 12 5 8 -5 41 9 115 47 22 12 57 29 78 40 21 10 35 23
32 27 -3 5 2 12 11 15 8 3 12 2 9 -4 -3 -5 18 7 47 26 29 20 56 41 60 47 4 7
8 9 8 5 0 -4 12 4 26 17 14 13 23 29 19 35 -3 6 -10 8 -15 5 -4 -3 -6 4 -3 15
3 11 10 20 15 20 5 0 6 -5 3 -10 -3 -6 1 -13 9 -16 9 -3 13 -10 10 -15 -3 -5
2 -6 10 -3 15 6 20 17 17 36 0 4 6 5 14 2 18 -7 19 0 3 25 -14 23 3 51 31 51
10 0 12 3 5 8 -13 9 -26 42 -16 42 5 0 13 -5 19 -11 9 -9 11 -5 8 12 -1 13 -6
32 -10 42 -5 13 -2 17 14 17 12 0 21 5 21 10 0 19 -31 10 -55 -16 l-25 -27 0
27 c0 14 5 26 11 26 7 0 9 10 7 24 -4 17 -1 23 9 19 11 -4 13 77 13 472 0 463
-1 477 -19 482 -31 8 -14 30 19 25 17 -2 30 0 30 6 0 6 -9 9 -20 7 -12 -2 -18
0 -15 6 4 5 10 7 15 4 11 -7 30 19 22 30 -8 11 -326 15 -343 4z m291 -1184 c0
-8 -4 -17 -10 -20 -6 -4 -10 5 -10 20 0 15 4 24 10 20 6 -3 10 -12 10 -20z
m-40 -115 c0 -5 -2 -10 -4 -10 -3 0 -8 5 -11 10 -3 6 -1 10 4 10 6 0 11 -4 11
-10z m-425 -250 c3 -6 -1 -7 -9 -4 -18 7 -21 14 -7 14 6 0 13 -4 16 -10z"/>
<path d="M3178 1723 c7 -3 16 -2 19 1 4 3 -2 6 -13 5 -11 0 -14 -3 -6 -6z"/>
<path d="M3276 675 c-11 -8 -15 -15 -9 -15 6 0 16 7 23 15 16 19 11 19 -14 0z"/>
<path d="M3260 640 c-8 -5 -12 -12 -9 -15 4 -3 12 1 19 10 14 17 11 19 -10 5z"/>
<path d="M3225 620 c-3 -5 -1 -10 4 -10 6 0 11 5 11 10 0 6 -2 10 -4 10 -3 0
-8 -4 -11 -10z"/>
<path d="M3185 589 c-19 -9 -19 -9 2 -5 12 2 24 -1 27 -8 3 -8 5 -8 5 1 1 17
-11 22 -34 12z"/>
<path d="M3120 510 c8 -5 20 -10 25 -10 6 0 3 5 -5 10 -8 5 -19 10 -25 10 -5
0 -3 -5 5 -10z"/>
<path d="M3063 485 c-10 -10 -9 -16 2 -25 15 -13 35 -6 35 12 0 6 -7 5 -16 -3
-15 -12 -16 -11 -10 9 8 25 6 27 -11 7z"/>
<path d="M3105 490 c3 -5 8 -10 11 -10 2 0 4 5 4 10 0 6 -5 10 -11 10 -5 0 -7
-4 -4 -10z"/>
</g>
</svg>
